<svg width="28" height="31" viewBox="0 0 28 31" fill="none" xmlns="http://www.w3.org/2000/svg">
<path d="M0.777344 1.5C0.777344 0.947715 1.17702 0.5 1.67004 0.5H4.34815C4.75778 0.5 5.11484 0.812297 5.21419 1.25746L5.93785 4.5H26.6657C26.9312 4.5 27.183 4.63245 27.3526 4.86136C27.5222 5.09028 27.592 5.3919 27.5431 5.68429L24.865 21.6843C24.7858 22.1573 24.4171 22.5 23.9876 22.5H22.2022H9.70435H7.91895C7.48937 22.5 7.1207 22.1573 7.04154 21.6843L4.36834 5.7136L3.65115 2.5H1.67004C1.17702 2.5 0.777344 2.05228 0.777344 1.5ZM9.70435 22.5C7.73225 22.5 6.13355 24.2909 6.13355 26.5C6.13355 28.7091 7.73225 30.5 9.70435 30.5C11.6764 30.5 13.2752 28.7091 13.2752 26.5C13.2752 24.2909 11.6764 22.5 9.70435 22.5ZM22.2022 22.5C20.2301 22.5 18.6314 24.2909 18.6314 26.5C18.6314 28.7091 20.2301 30.5 22.2022 30.5C24.1743 30.5 25.773 28.7091 25.773 26.5C25.773 24.2909 24.1743 22.5 22.2022 22.5ZM9.70435 24.5C10.6904 24.5 11.4897 25.3954 11.4897 26.5C11.4897 27.6046 10.6904 28.5 9.70435 28.5C8.7183 28.5 7.91895 27.6046 7.91895 26.5C7.91895 25.3954 8.7183 24.5 9.70435 24.5ZM22.2022 24.5C23.1882 24.5 23.9876 25.3954 23.9876 26.5C23.9876 27.6046 23.1882 28.5 22.2022 28.5C21.2161 28.5 20.4168 27.6046 20.4168 26.5C20.4168 25.3954 21.2161 24.5 22.2022 24.5Z" fill="white"/>
</svg>
