<svg width="2343" height="2343" viewBox="0 0 2343 2343" fill="none" xmlns="http://www.w3.org/2000/svg">
<circle cx="1171.5" cy="1171.5" r="1146.5" fill="#F7CF40" stroke="black" stroke-width="50"/>
<path d="M781.658 1189.99C729.342 1219.54 693.133 1252.88 671 1287.99C557.537 1467.99 813.962 1694.49 1166.66 1694.49C1473.93 1694.49 1820.47 1495.96 1679.27 1289.85C1656.41 1256.49 1620.79 1222.94 1570.16 1189.99C1589.02 1089.35 1598.1 997.744 1597.81 917.516C1596.68 594.901 1444.23 456.281 1168.69 654.033C1167.54 654.86 1165.87 654.774 1164.82 653.824C942.628 453.412 731.823 557.62 741.468 917.516C743.578 996.27 756.245 1087.27 781.658 1189.99Z" fill="#ABA383"/>
<path d="M1164.82 653.824C1165.87 654.774 1167.54 654.86 1168.69 654.033C1444.23 456.281 1596.68 594.901 1597.81 917.516C1598.1 997.744 1589.02 1089.35 1570.16 1189.99C1620.79 1222.94 1656.41 1256.49 1679.27 1289.85C2126.83 1309.54 1956.48 387.521 1682.75 768.755C1647.83 513 1505.66 425.016 1346.7 380L1396.53 241.555C1397.14 239.877 1395.41 238.307 1393.8 239.07L1166.66 346.5L1142.86 240.124C1142.53 238.681 1140.81 238.075 1139.66 238.998L963.16 380C745.16 431.016 656.556 636 639.789 768.755C413.401 424.994 191.373 1287.99 671 1287.99C693.133 1252.88 729.342 1219.54 781.658 1189.99C756.245 1087.27 743.578 996.27 741.468 917.516C731.823 557.62 942.628 453.412 1164.82 653.824Z" fill="#722804"/>
<path d="M991.699 1675.12V1721.72C991.699 1756.96 972.616 1789.52 943.125 1808.82C625.085 2016.91 828.524 2107.55 1174.2 2107.55C1597.98 2107.55 1726.49 2005.09 1398.17 1808.13C1366.95 1789.4 1346.7 1755.95 1346.7 1719.54V1673.33C1287.79 1686.97 1226.48 1694.49 1166.66 1694.49C1104.9 1694.49 1046.09 1687.55 991.699 1675.12Z" fill="#722804"/>
<path d="M671.002 1287.99H671M1166.66 1694.49C813.962 1694.49 557.537 1467.99 671 1287.99M1166.66 1694.49C1473.93 1694.49 1820.47 1495.96 1679.27 1289.85M1166.66 1694.49C1226.48 1694.49 1287.79 1686.97 1346.7 1673.33V1719.54C1346.7 1755.95 1366.95 1789.4 1398.17 1808.13C1726.49 2005.09 1597.98 2107.55 1174.2 2107.55C828.524 2107.55 625.085 2016.91 943.125 1808.82C972.616 1789.52 991.699 1756.96 991.699 1721.72V1675.12C1046.09 1687.55 1104.9 1694.49 1166.66 1694.49ZM1016.16 1189.99C1051.13 1034.13 1142.71 1056.86 1165.78 1184.82C1165.97 1185.91 1167.6 1185.91 1167.86 1184.84C1204.23 1032.62 1299.9 1058.95 1321.16 1189.99M671 1287.99C693.133 1252.88 729.342 1219.54 781.658 1189.99C756.245 1087.27 743.578 996.27 741.468 917.516C731.823 557.62 942.628 453.412 1164.82 653.824C1165.87 654.774 1167.54 654.86 1168.69 654.033C1444.23 456.281 1596.68 594.901 1597.81 917.516C1598.1 997.744 1589.02 1089.35 1570.16 1189.99C1620.79 1222.94 1656.41 1256.49 1679.27 1289.85M671 1287.99C191.373 1287.99 413.401 424.994 639.789 768.755C656.556 636 745.16 431.016 963.16 380L1139.66 238.998C1140.81 238.075 1142.53 238.681 1142.86 240.124L1166.66 346.5L1393.8 239.07C1395.41 238.307 1397.14 239.877 1396.53 241.555L1346.7 380C1505.66 425.016 1647.83 513 1682.75 768.755C1956.48 387.521 2126.83 1309.54 1679.27 1289.85" stroke="black" stroke-width="50"/>
<path d="M843.409 1323.33C878.151 1333.27 887.613 1378.03 859.864 1401.17C838.787 1418.75 807.018 1413.54 792.666 1390.14C771.2 1355.15 803.941 1312.04 843.409 1323.33Z" stroke="black" stroke-width="50"/>
<path d="M1119.03 1181.47C1119.27 1194.36 1116.45 1206.06 1111.72 1214.55C1106.98 1223.06 1100.4 1228.26 1093.12 1228.4C1085.85 1228.53 1079.08 1223.57 1074.03 1215.24C1069 1206.92 1065.75 1195.33 1065.52 1182.44C1065.28 1169.55 1068.1 1157.85 1072.83 1149.36C1077.57 1140.85 1084.15 1135.64 1091.43 1135.51C1098.7 1135.38 1105.47 1140.34 1110.52 1148.67C1115.55 1156.99 1118.8 1168.58 1119.03 1181.47Z" fill="black" stroke="black"/>
<path d="M1271.03 1183.47C1271.27 1196.36 1268.45 1208.06 1263.72 1216.55C1258.98 1225.06 1252.4 1230.26 1245.12 1230.4C1237.85 1230.53 1231.08 1225.57 1226.03 1217.24C1221 1208.92 1217.75 1197.33 1217.52 1184.44C1217.28 1171.55 1220.1 1159.85 1224.83 1151.36C1229.57 1142.85 1236.15 1137.64 1243.43 1137.51C1250.7 1137.38 1257.47 1142.34 1262.52 1150.67C1267.55 1158.99 1270.8 1170.58 1271.03 1183.47Z" fill="black" stroke="black"/>
<path d="M1472.12 917.805C1473.26 980.238 1463.32 1036.94 1446.33 1078.13C1437.84 1098.73 1427.59 1115.43 1416.12 1127.03C1404.64 1138.64 1391.96 1145.12 1378.58 1145.37C1365.19 1145.61 1352.28 1139.59 1340.39 1128.42C1328.5 1117.24 1317.66 1100.92 1308.42 1080.65C1289.94 1040.1 1277.93 983.803 1276.79 921.37C1275.65 858.936 1285.6 802.237 1302.58 761.041C1311.08 740.442 1321.32 723.743 1332.8 712.139C1344.27 700.537 1356.95 694.052 1370.34 693.808C1383.72 693.564 1396.63 699.582 1408.52 710.757C1420.41 721.935 1431.26 738.249 1440.5 758.524C1458.97 799.072 1470.99 855.371 1472.12 917.805Z" fill="black" stroke="black"/>
<path d="M1059.12 914.805C1060.26 977.238 1050.32 1033.94 1033.33 1075.13C1024.84 1095.73 1014.59 1112.43 1003.12 1124.03C991.645 1135.64 978.965 1142.12 965.578 1142.37C952.191 1142.61 939.283 1136.59 927.394 1125.42C915.502 1114.24 904.657 1097.92 895.418 1077.65C876.94 1037.1 864.929 980.803 863.79 918.37C862.65 855.936 872.599 799.237 889.585 758.041C898.078 737.442 908.321 720.743 919.796 709.139C931.27 697.537 943.949 691.052 957.337 690.808C970.724 690.564 983.632 696.582 995.521 707.757C1007.41 718.935 1018.26 735.249 1027.5 755.524C1045.97 796.072 1057.99 852.371 1059.12 914.805Z" fill="black" stroke="black"/>
<path d="M610.164 873.008C610.164 873.008 629.812 919.678 647.116 976.516C667.305 1042.83 684.304 1122.99 663.187 1159.01C649.715 1181.99 620.73 1187.01 567.162 1159.01C556.571 1153.47 546.922 1147.2 538.16 1140.32C373.621 1011.04 521.863 664.609 610.164 873.008Z" fill="#ABA383"/>
<path d="M1853.66 859.019C1741.16 542.523 1562.66 1284.01 1758.16 1168.51C1953.66 1053 1853.66 859.019 1853.66 859.019Z" fill="#ABA383"/>
<path d="M663.187 1159.01C533.688 1169.51 496.66 862.518 647.118 976.518M1701.46 1168.51C1816.46 1168.51 1822.66 832.518 1685.4 986.018M610.164 873.008C610.164 873.008 776.662 1268.51 567.162 1159.01C556.571 1153.47 546.922 1147.2 538.16 1140.32C373.621 1011.04 521.863 664.609 610.164 873.008ZM1853.66 859.019C1741.16 542.523 1562.66 1284.01 1758.16 1168.51C1953.66 1053 1853.66 859.019 1853.66 859.019Z" stroke="black" stroke-width="50"/>
<path d="M1265.65 784.819L1336.14 825.711L1258.41 838.384C1256.45 817.718 1261.56 809.611 1265.65 784.819Z" fill="#ABA383"/>
<path d="M861.648 783.819L932.141 824.711L854.405 837.384C852.445 816.718 857.563 808.611 861.648 783.819Z" fill="#ABA383"/>
<path d="M1050.51 660.398C1050.88 663.413 1050.22 665.264 1048.82 666.359C1047.38 667.488 1045.02 667.927 1041.76 667.768C1035.3 667.454 1025.77 664.843 1014.15 661.66L1013.83 661.572C990.375 655.147 958.726 646.538 927.821 650.391C896.901 654.245 872.617 669.835 855.725 681.299C854.706 681.99 853.715 682.666 852.752 683.323C849.715 685.394 846.949 687.279 844.452 688.878C841.159 690.986 838.369 692.571 836.074 693.414C833.763 694.264 832.09 694.312 830.915 693.566C829.733 692.816 828.87 691.146 828.488 688.075C827.731 682.007 829.687 674.725 834.066 667.063C838.44 659.409 845.209 651.418 854.005 643.95C871.596 629.016 897.253 616.21 927.944 612.384C958.638 608.557 988.553 614.437 1011.17 624.369C1022.48 629.334 1031.95 635.306 1038.78 641.568C1045.62 647.839 1049.75 654.353 1050.51 660.398Z" fill="black" stroke="black"/>
<path d="M1496.33 681.616C1496.12 684.647 1495.11 686.334 1493.52 687.136C1491.89 687.965 1489.49 687.938 1486.32 687.149C1480.05 685.588 1471.2 681.177 1460.42 675.802L1460.13 675.653C1438.36 664.8 1408.98 650.215 1377.92 647.999C1346.84 645.782 1319.99 656.365 1301.2 664.334C1300.06 664.814 1298.96 665.285 1297.89 665.743C1294.51 667.185 1291.43 668.498 1288.67 669.582C1285.03 671.012 1281.98 672.025 1279.57 672.407C1277.14 672.792 1275.49 672.515 1274.48 671.555C1273.46 670.59 1272.94 668.784 1273.16 665.698C1273.6 659.598 1276.93 652.834 1282.71 646.167C1288.49 639.507 1296.68 632.981 1306.75 627.361C1326.91 616.123 1354.56 608.537 1385.41 610.738C1416.27 612.939 1444.47 624.51 1464.74 638.641C1474.87 645.707 1483 653.402 1488.48 660.869C1493.97 668.347 1496.77 675.54 1496.33 681.616Z" fill="black" stroke="black"/>
</svg>
