<?xml version="1.0" encoding="UTF-8"?>
<svg xmlns="http://www.w3.org/2000/svg" xmlns:xlink="http://www.w3.org/1999/xlink" width="43px" height="40px" viewBox="0 0 42 40" version="1.1">
<g id="surface1">
<path style="fill-rule:nonzero;fill:rgb(96.862745%,81.176472%,25.098041%);fill-opacity:1;stroke-width:50;stroke-linecap:butt;stroke-linejoin:miter;stroke:rgb(0%,0%,0%);stroke-opacity:1;stroke-miterlimit:4;" d="M 2694.816102 1283.320295 C 2816.000003 1349.253891 2816.000003 1523.767494 2694.816102 1589.701091 L 1040.960992 2496.217897 C 924.136224 2560.187514 781.737875 2475.736397 781.737875 2343.027499 L 781.737875 529.993886 C 781.737875 397.284988 924.136224 312.833872 1040.960992 376.52292 Z M 2694.816102 1283.320295 " transform="matrix(0.0134416,0,0,0.0139226,0.65625,0)"/>
<path style=" stroke:none;fill-rule:nonzero;fill:rgb(100%,100%,100%);fill-opacity:1;" d="M 22.796875 20.121094 C 21.722656 19.78125 20.734375 19.292969 19.628906 18.628906 C 19.605469 18.609375 19.570312 18.601562 19.53125 18.609375 C 17.703125 18.882812 16.957031 22.265625 20.859375 23.148438 Z M 22.796875 20.121094 "/>
<path style=" stroke:none;fill-rule:nonzero;fill:rgb(100%,100%,100%);fill-opacity:1;" d="M 22.796875 20.121094 L 20.859375 23.148438 C 23.132812 23.679688 25.679688 23.585938 27.25 23.414062 L 27.835938 22.0625 L 28.425781 20.71875 C 27.421875 20.738281 26.550781 20.726562 25.757812 20.667969 C 24.636719 20.578125 23.6875 20.398438 22.796875 20.121094 Z M 22.796875 20.121094 "/>
<path style=" stroke:none;fill-rule:nonzero;fill:rgb(67.058825%,63.921571%,51.372552%);fill-opacity:1;" d="M 29.824219 20.65625 C 29.875 20.65625 29.921875 20.628906 29.945312 20.589844 C 30.359375 19.953125 30.539062 19.40625 30.121094 18.773438 C 30.082031 18.71875 30.082031 18.636719 30.113281 18.574219 C 30.703125 17.585938 30.371094 16.59375 29.90625 16.28125 C 29.433594 15.96875 28.816406 16.304688 28.574219 16.773438 C 28.570312 16.78125 28.550781 16.78125 28.550781 16.765625 C 28.425781 16.25 28.027344 15.972656 27.554688 15.933594 C 27.84375 12.414062 27.03125 9.289062 25.363281 7.664062 C 24.738281 7.335938 24.519531 7.914062 24.300781 8.496094 C 24.09375 9.070312 23.875 9.644531 23.269531 9.339844 C 23.25 9.332031 23.234375 9.320312 23.222656 9.304688 C 17.726562 3.511719 15.59375 10.726562 17.1875 16.40625 C 12.886719 19.785156 15.261719 24.667969 19.878906 25.941406 C 21.515625 26.359375 23.34375 26.664062 25.515625 26.351562 C 26.351562 26.234375 27.238281 26.019531 28.183594 25.6875 C 29.820312 24.953125 29.402344 22.925781 29.242188 23.082031 C 29.203125 23.128906 28.132812 23.3125 27.25 23.414062 C 25.679688 23.585938 23.132812 23.679688 20.859375 23.148438 C 16.957031 22.265625 17.703125 18.882812 19.53125 18.609375 C 19.570312 18.601562 19.605469 18.609375 19.628906 18.628906 C 20.734375 19.292969 21.722656 19.78125 22.796875 20.121094 C 23.6875 20.398438 24.636719 20.578125 25.757812 20.667969 C 26.550781 20.726562 27.421875 20.738281 28.425781 20.71875 C 28.867188 20.703125 29.332031 20.6875 29.824219 20.65625 Z M 29.824219 20.65625 "/>
<path style=" stroke:none;fill-rule:nonzero;fill:rgb(44.705883%,15.686275%,1.568628%);fill-opacity:1;" d="M 21.757812 28.773438 C 21.820312 28.824219 21.839844 28.90625 21.8125 28.976562 L 21.058594 30.757812 C 20.996094 30.902344 21.144531 31.046875 21.28125 30.96875 L 27.882812 27.171875 C 28.027344 27.089844 27.96875 26.859375 27.804688 26.859375 L 26.996094 26.859375 C 26.980469 26.859375 26.964844 26.859375 26.949219 26.855469 L 25.515625 26.351562 C 23.34375 26.664062 21.515625 26.359375 19.878906 25.941406 C 19.570312 25.859375 19.257812 25.777344 18.953125 25.6875 C 18.191406 25.503906 17.53125 25.265625 16.957031 24.992188 Z M 21.757812 28.773438 "/>
<path style=" stroke:none;fill-rule:nonzero;fill:rgb(67.058825%,63.921571%,51.372552%);fill-opacity:1;" d="M 13.292969 13.78125 C 12.597656 4.554688 3.019531 14.265625 11.851562 18.238281 C 8.015625 13.78125 11.59375 10.644531 13.292969 13.78125 Z M 13.292969 13.78125 "/>
<path style=" stroke:none;fill-rule:evenodd;fill:rgb(44.705883%,15.686275%,1.568628%);fill-opacity:1;" d="M 13.589844 10.21875 C 13.59375 10.242188 13.542969 10.257812 13.53125 10.234375 C 8.835938 3.285156 2.152344 17.6875 12.597656 20.152344 C 12.648438 20.75 13.761719 23.441406 16.957031 24.992188 C 17.53125 25.265625 18.191406 25.503906 18.953125 25.6875 C 19.257812 25.777344 19.570312 25.859375 19.878906 25.941406 C 15.261719 24.667969 12.886719 19.785156 17.1875 16.40625 C 15.59375 10.726562 17.726562 3.511719 23.222656 9.304688 C 23.234375 9.320312 23.25 9.332031 23.269531 9.339844 C 23.875 9.644531 24.09375 9.070312 24.300781 8.496094 C 24.519531 7.914062 24.738281 7.335938 25.363281 7.664062 L 21.847656 5.695312 C 21.757812 5.640625 21.738281 5.515625 21.804688 5.433594 L 22.75 4.316406 C 22.757812 4.304688 22.75 4.292969 22.738281 4.292969 L 17.917969 5.589844 C 17.90625 5.589844 17.902344 5.582031 17.902344 5.570312 L 17.902344 3.792969 C 17.902344 3.773438 17.878906 3.769531 17.875 3.785156 C 17.734375 4.144531 17.035156 5.8125 16.023438 6.375 C 15.222656 6.820312 13.363281 8 13.589844 10.21875 Z M 13.589844 10.21875 "/>
<path style=" stroke:none;fill-rule:evenodd;fill:rgb(67.058825%,63.921571%,51.372552%);fill-opacity:1;" d="M 13.292969 13.78125 C 12.597656 4.554688 3.019531 14.265625 11.851562 18.238281 L 12.597656 16.632812 C 11.246094 16.09375 12.195312 15.667969 12.167969 15.398438 C 12.164062 15.371094 12.15625 15.335938 12.15625 15.308594 C 12.167969 13.714844 13.023438 14.671875 13.25 14.734375 C 13.28125 14.746094 13.292969 14.710938 13.296875 14.683594 C 13.34375 14.40625 13.296875 14.121094 13.292969 13.78125 Z M 13.292969 13.78125 "/>
<path style="fill:none;stroke-width:50;stroke-linecap:butt;stroke-linejoin:miter;stroke:rgb(0%,0%,0%);stroke-opacity:1;stroke-miterlimit:4;" d="M 888.391332 1447.452864 C 111.303199 1270.133575 608.534985 235.958104 957.846853 735.089456 C 958.71868 736.772867 962.496595 735.650593 962.205987 733.967182 C 945.350672 574.323709 1083.680497 489.872592 1143.255316 457.887783 C 1218.523015 417.205352 1270.542003 297.683173 1281.003923 271.870871 C 1281.294532 270.748597 1283.038185 271.029166 1283.038185 272.432008 L 1283.038185 400.090673 C 1283.038185 400.932379 1283.328794 401.493516 1284.200621 401.493516 L 1642.811973 308.344776 C 1643.6838 308.344776 1644.265017 309.186481 1643.6838 310.028187 L 1573.356452 390.270776 C 1568.416101 396.162714 1569.869145 405.140906 1576.553149 408.788297 L 1838.101137 550.475387 M 888.391332 1447.452864 C 883.74159 1396.950535 911.349433 1185.963027 1013.06254 1171.934602 M 888.391332 1447.452864 C 892.169248 1490.379844 974.992777 1683.691536 1212.710837 1794.79666 M 2001.132716 1144.43889 C 2036.29639 1147.244575 2065.938496 1167.164938 2075.23798 1204.199979 C 2075.23798 1205.322253 2076.691024 1205.322253 2076.981633 1204.761116 C 2094.999383 1171.092897 2140.915585 1146.683438 2176.079259 1169.128917 C 2210.661716 1191.574397 2235.36347 1263.119363 2191.48153 1334.103192 C 2189.156659 1338.592288 2189.156659 1344.484226 2192.062748 1348.412185 C 2223.157897 1393.583713 2209.789889 1432.863302 2178.985348 1478.876535 C 2177.241695 1481.68222 2173.754388 1483.365631 2169.976473 1483.365631 C 2133.359755 1485.890748 2098.777299 1487.013022 2065.938496 1488.135296 M 2001.132716 1144.43889 C 1965.097216 1141.633205 1892.444997 1201.394294 1908.428485 1309.974302 M 2001.132716 1144.43889 C 2022.637773 891.366108 1962.191127 666.911312 1838.101137 550.475387 M 1647.171106 1445.208316 C 1567.253665 1420.798857 1493.72962 1385.727795 1411.487308 1338.031151 C 1409.743655 1336.628309 1407.128175 1336.067172 1404.222086 1336.628309 C 1268.217132 1356.268103 1212.710837 1599.24042 1503.029104 1662.648899 M 1647.171106 1445.208316 L 1503.029104 1662.648899 M 1647.171106 1445.208316 C 1713.42993 1465.128679 1784.047886 1477.754261 1867.452634 1484.487905 M 1503.029104 1662.648899 C 1672.163469 1700.806215 1861.640456 1693.792002 1978.465224 1681.727557 M 1867.452634 1484.487905 L 1741.328382 1690.42518 M 1867.452634 1484.487905 C 1926.446235 1488.696433 1991.252015 1489.538138 2065.938496 1488.135296 M 2065.938496 1488.135296 L 2022.056555 1584.370289 L 1978.465224 1681.727557 M 1978.465224 1681.727557 C 2044.14283 1674.152208 2123.769662 1661.246057 2126.966359 1657.879235 C 2138.590714 1646.656495 2169.685864 1791.990975 2047.920745 1845.018421 C 1977.593397 1868.866743 1911.625183 1884.29801 1849.434883 1892.715065 M 940.119712 989.565081 C 888.391332 327.142865 175.81837 1024.636142 833.175646 1309.974302 M 940.119712 989.565081 C 813.704851 764.549148 547.507121 989.565081 833.175646 1309.974302 M 940.119712 989.565081 C 940.410321 1014.255108 943.897627 1034.45604 940.410321 1054.656971 C 940.119712 1056.620951 939.247885 1059.146067 936.923014 1058.304362 C 920.0677 1053.815266 856.424356 985.075985 855.552529 1099.547931 C 855.552529 1101.51191 856.133747 1104.037026 856.424356 1106.001006 C 858.458618 1125.360232 787.840661 1155.942198 888.391332 1194.380082 M 833.175646 1309.974302 L 888.391332 1194.380082 M 1234.215894 1194.380082 C 1232.76285 1189.329849 1231.309805 1183.718479 1229.856761 1178.387678 M 1838.101137 550.475387 C 1791.603717 526.627064 1775.32962 568.43177 1759.055523 610.236476 C 1743.653253 651.480045 1727.379156 692.723613 1682.33478 670.839271 C 1680.881736 670.278134 1679.7193 669.436428 1678.847473 668.314154 C 1269.960786 252.231077 1111.28834 770.441086 1229.856761 1178.387678 M 1241.481116 1169.128917 C 1237.412592 1172.495739 1233.344067 1175.301424 1229.856761 1178.387678 M 1463.506297 1871.111291 C 1452.46316 1868.586174 1441.420022 1866.061058 1430.086276 1863.255373 M 888.391332 1194.380082 C 891.297421 1185.963027 894.494119 1178.668246 897.109599 1171.654034 M 1847.981839 1892.434496 L 1849.434883 1892.715065 M 1229.856761 1178.387678 C 909.896389 1421.079425 1086.586585 1771.790044 1430.086276 1863.255373 M 1430.086276 1863.255373 C 1551.851395 1892.995633 1687.856349 1915.160545 1849.434883 1892.715065 M 1430.086276 1863.255373 C 1407.128175 1857.363435 1383.879465 1851.471496 1361.211973 1845.018421 C 1304.543242 1831.831702 1255.430342 1814.436455 1212.710837 1794.79666 M 1849.434883 1892.715065 L 1956.088341 1928.908401 C 1957.250776 1929.188969 1958.413212 1929.188969 1959.575647 1929.188969 L 2019.731684 1929.188969 C 2031.937257 1929.188969 2036.29639 1945.74251 2025.543862 1951.634449 L 1534.414862 2224.066457 C 1524.243552 2229.677827 1513.200414 2219.577361 1517.850156 2209.196327 L 1573.937669 2080.976525 C 1575.971932 2076.20686 1574.518887 2070.314922 1569.869145 2066.667532 L 1212.710837 1794.79666 " transform="matrix(0.0134416,0,0,0.0139226,0.65625,0)"/>
<path style=" stroke:none;fill-rule:nonzero;fill:rgb(0%,0%,0%);fill-opacity:1;" d="M 21.582031 13.613281 C 21.324219 11.660156 20.453125 10.171875 19.640625 10.292969 C 18.832031 10.40625 18.378906 12.085938 18.640625 14.039062 C 18.902344 15.984375 19.773438 17.476562 20.585938 17.359375 C 21.402344 17.242188 21.84375 15.5625 21.582031 13.613281 Z M 21.582031 13.613281 "/>
<path style=" stroke:none;fill-rule:nonzero;fill:rgb(0%,0%,0%);fill-opacity:1;" d="M 27.390625 18.273438 C 27.664062 18.304688 27.929688 17.988281 27.980469 17.5625 C 28.039062 17.132812 27.863281 16.753906 27.585938 16.71875 C 27.3125 16.683594 27.046875 17 26.992188 17.425781 C 26.933594 17.859375 27.117188 18.234375 27.390625 18.273438 Z M 27.390625 18.273438 "/>
<path style=" stroke:none;fill-rule:nonzero;fill:rgb(0%,0%,0%);fill-opacity:1;" d="M 29.386719 18.328125 C 29.632812 18.359375 29.875 18.050781 29.921875 17.648438 C 29.96875 17.234375 29.804688 16.878906 29.558594 16.851562 C 29.308594 16.816406 29.074219 17.117188 29.023438 17.53125 C 28.976562 17.9375 29.136719 18.296875 29.386719 18.328125 Z M 29.386719 18.328125 "/>
<path style=" stroke:none;fill-rule:nonzero;fill:rgb(0%,0%,0%);fill-opacity:1;" d="M 26.765625 13.066406 C 26.964844 14.789062 26.539062 16.257812 25.8125 16.347656 C 25.082031 16.4375 24.734375 15.179688 24.53125 13.457031 C 24.339844 11.726562 24.367188 10.191406 25.097656 10.101562 C 25.824219 10.007812 26.574219 11.335938 26.765625 13.066406 Z M 26.765625 13.066406 "/>
<path style=" stroke:none;fill-rule:nonzero;fill:rgb(0%,0%,0%);fill-opacity:1;" d="M 21.097656 8.921875 C 21.140625 9.265625 20.269531 8.679688 19.441406 8.792969 C 18.617188 8.898438 18.144531 9.65625 18.101562 9.304688 C 18.054688 8.964844 18.617188 8.355469 19.441406 8.25 C 20.269531 8.140625 21.058594 8.578125 21.097656 8.921875 Z M 21.097656 8.921875 "/>
<path style=" stroke:none;fill-rule:nonzero;fill:rgb(0%,0%,0%);fill-opacity:1;" d="M 26.011719 8.804688 C 26.0625 9.015625 25.535156 8.707031 25.125 8.804688 C 24.710938 8.898438 24.574219 9.367188 24.527344 9.148438 C 24.472656 8.929688 24.710938 8.53125 25.125 8.4375 C 25.535156 8.339844 25.96875 8.585938 26.011719 8.804688 Z M 26.011719 8.804688 "/>
<path style=" stroke:none;fill-rule:nonzero;fill:rgb(67.058825%,63.921571%,51.372552%);fill-opacity:1;" d="M 18.644531 11.605469 L 19.949219 12.367188 L 18.519531 12.597656 C 18.476562 12.210938 18.574219 12.0625 18.644531 11.605469 Z M 18.644531 11.605469 "/>
<path style=" stroke:none;fill-rule:nonzero;fill:rgb(67.058825%,63.921571%,51.372552%);fill-opacity:1;" d="M 24.441406 11.15625 L 25.390625 11.722656 L 24.34375 11.898438 C 24.316406 11.617188 24.382812 11.5 24.441406 11.15625 Z M 24.441406 11.15625 "/>
</g>
</svg>
