<svg width="25" height="26" viewBox="0 0 25 26" fill="none" xmlns="http://www.w3.org/2000/svg">
<path d="M17.7083 16.1947H16.5892L16.1925 15.8122C17.6289 14.1463 18.4184 12.0193 18.4167 9.81966C18.4167 7.99843 17.8766 6.21809 16.8648 4.70379C15.853 3.18949 14.4148 2.00923 12.7322 1.31227C11.0496 0.615318 9.19812 0.432962 7.41188 0.788268C5.62564 1.14357 3.98487 2.02058 2.69706 3.30839C1.40925 4.5962 0.532245 6.23697 0.17694 8.02321C-0.178366 9.80945 0.00398983 11.6609 0.700947 13.3435C1.3979 15.0261 2.57816 16.4643 4.09246 17.4761C5.60676 18.4879 7.3871 19.028 9.20834 19.028C11.4892 19.028 13.5858 18.1922 15.2008 16.8038L15.5833 17.2005V18.3197L22.6667 25.3888L24.7775 23.278L17.7083 16.1947ZM9.20834 16.1947C5.68084 16.1947 2.83334 13.3472 2.83334 9.81966C2.83334 6.29217 5.68084 3.44467 9.20834 3.44467C12.7358 3.44467 15.5833 6.29217 15.5833 9.81966C15.5833 13.3472 12.7358 16.1947 9.20834 16.1947Z" fill="white"/>
</svg>
